<svg xmlns="http://www.w3.org/2000/svg" width="800" height="188" viewBox="0 0 800 188">
  <g fill="none" stroke="#B7F34A" stroke-width="4" stroke-linecap="round" stroke-linejoin="round">
    <path d="M370 28h60M382 28v39l-34 67c-7 14 3 27 19 27h66c16 0 26-13 19-27l-34-67V28"/>
    <path d="M361 126c28-13 54 12 79-2" stroke="#66D6BE" opacity=".75"/>
    <path d="M400 115c-5-29 9-49 32-60M402 93c-20-3-31-13-36-30M411 76c17 1 30-7 38-21"/>
    <circle cx="372" cy="108" r="4" fill="#B7F34A"/><circle cx="434" cy="137" r="3" fill="#66D6BE"/>
  </g>
</svg>
